<svg width="24" height="24" viewBox="0 0 24 24" fill="none" xmlns="http://www.w3.org/2000/svg">
<path d="M2.97495 22.4252L1.57495 21.0252L3.97495 18.6002C3.44162 18.0669 2.99995 17.5585 2.64995 17.0752C2.29995 16.5919 2.12495 15.9335 2.12495 15.1002C2.12495 14.5669 2.22495 14.0585 2.42495 13.5752C2.62495 13.0919 2.91662 12.6585 3.29995 12.2752L4.44995 11.1502L5.57495 12.2752C6.05828 12.7419 6.39995 13.3085 6.59995 13.9752C6.79995 14.6419 6.80828 15.3002 6.62495 15.9502L8.19995 14.3752C7.66662 13.8252 7.22495 13.3085 6.87495 12.8252C6.52495 12.3419 6.34995 11.6835 6.34995 10.8502C6.34995 10.3169 6.44578 9.80853 6.63745 9.3252C6.82912 8.84186 7.11662 8.40853 7.49995 8.0252L8.64995 6.9002L9.77495 8.0252C10.2583 8.50853 10.6 9.0877 10.8 9.7627C11 10.4377 11.0083 11.1002 10.825 11.7502L12.125 10.4502C11.625 9.9002 11.1833 9.37936 10.8 8.8877C10.4166 8.39603 10.225 7.7502 10.225 6.9502C10.225 6.41686 10.3333 5.89603 10.55 5.3877C10.7666 4.87936 11.0666 4.43353 11.45 4.0502L13.925 1.5752L15.325 2.9752L13.925 4.4002C14.3083 4.86686 14.5791 5.4127 14.7375 6.0377C14.8958 6.6627 14.8833 7.26686 14.7 7.8502L20.15 2.4002L21.55 3.8252L16.05 9.3252C16.65 9.14186 17.2666 9.12103 17.9 9.2627C18.5333 9.40436 19.0916 9.66686 19.575 10.0502L20.975 8.6252L22.425 10.0752L19.925 12.6002C19.5416 12.9835 19.1041 13.2752 18.6125 13.4752C18.1208 13.6752 17.6083 13.7752 17.075 13.7752C16.375 13.7752 15.7333 13.5835 15.15 13.2002C14.5666 12.8169 14.025 12.3752 13.525 11.8752L12.15 13.2502C12.8166 13.0335 13.5 13.0252 14.2 13.2252C14.9 13.4252 15.5 13.7669 16 14.2502L17.125 15.4002L16 16.5252C15.6166 16.9085 15.1791 17.2002 14.6875 17.4002C14.1958 17.6002 13.6833 17.7002 13.15 17.7002C12.45 17.7002 11.8125 17.5044 11.2375 17.1127C10.6625 16.721 10.1166 16.2835 9.59995 15.8002L7.87495 17.5252C8.55828 17.2919 9.25412 17.2752 9.96245 17.4752C10.6708 17.6752 11.275 18.0169 11.775 18.5002L12.925 19.6502L11.8 20.7752C11.4166 21.1585 10.9791 21.4502 10.4875 21.6502C9.99578 21.8502 9.48328 21.9502 8.94995 21.9502C8.23328 21.9502 7.58745 21.7544 7.01245 21.3627C6.43745 20.971 5.89162 20.5252 5.37495 20.0252L2.97495 22.4252Z" fill="#B3C943"/>
</svg>
