<svg width="24" height="24" viewBox="0 0 24 24" fill="none" xmlns="http://www.w3.org/2000/svg">
<path d="M4.72727 21.091V12.5683L3.09091 13.8183L2 12.3637L4.72727 10.2728V7.45463H6.54545V8.88645L12 4.72736L22 12.3637L20.9091 13.7955L19.2727 12.5683V21.091H12.9091V15.6365H11.0909V21.091H4.72727ZM4.72727 6.54554C4.72727 5.78797 4.99242 5.14403 5.52273 4.61373C6.05303 4.08342 6.69697 3.81827 7.45455 3.81827C7.71212 3.81827 7.92803 3.73115 8.10227 3.55691C8.27652 3.38266 8.36364 3.16676 8.36364 2.90918H10.1818C10.1818 3.66676 9.91667 4.31069 9.38636 4.841C8.85606 5.3713 8.21212 5.63645 7.45455 5.63645C7.19697 5.63645 6.98106 5.72357 6.80682 5.89782C6.63258 6.07206 6.54545 6.28797 6.54545 6.54554H4.72727Z" fill="#B3C943"/>
</svg>
