<svg width="24" height="24" viewBox="0 0 24 24" fill="none" xmlns="http://www.w3.org/2000/svg">
<path d="M2 19.2725V15.6361C2 15.121 2.17803 14.6892 2.53409 14.3407C2.89015 13.9922 3.31818 13.818 3.81818 13.818H6.79545C7.09848 13.818 7.38636 13.8937 7.65909 14.0452C7.93182 14.1967 8.15152 14.4013 8.31818 14.6589C8.75758 15.2498 9.29924 15.7119 9.94318 16.0452C10.5871 16.3786 11.2727 16.5452 12 16.5452C12.7424 16.5452 13.4356 16.3786 14.0795 16.0452C14.7235 15.7119 15.2576 15.2498 15.6818 14.6589C15.8788 14.4013 16.1098 14.1967 16.375 14.0452C16.6402 13.8937 16.9167 13.818 17.2045 13.818H20.1818C20.697 13.818 21.1288 13.9922 21.4773 14.3407C21.8258 14.6892 22 15.121 22 15.6361V19.2725H15.6364V17.2043C15.1061 17.5831 14.5341 17.871 13.9205 18.068C13.3068 18.2649 12.6667 18.3634 12 18.3634C11.3485 18.3634 10.7121 18.2611 10.0909 18.0566C9.4697 17.8521 8.89394 17.5604 8.36364 17.1816V19.2725H2ZM12 15.6361C11.4242 15.6361 10.8788 15.5036 10.3636 15.2384C9.84848 14.9733 9.41667 14.6058 9.06818 14.1361C8.81061 13.7574 8.48864 13.4581 8.10227 13.2384C7.71591 13.0187 7.29545 12.9089 6.84091 12.9089C7.17424 12.3483 7.87879 11.9051 8.95455 11.5793C10.0303 11.2536 11.0455 11.0907 12 11.0907C12.9545 11.0907 13.9697 11.2536 15.0455 11.5793C16.1212 11.9051 16.8258 12.3483 17.1591 12.9089C16.7197 12.9089 16.303 13.0187 15.9091 13.2384C15.5152 13.4581 15.1894 13.7574 14.9318 14.1361C14.5985 14.621 14.1742 14.9922 13.6591 15.2498C13.1439 15.5074 12.5909 15.6361 12 15.6361ZM4.72727 12.9089C3.9697 12.9089 3.32576 12.6437 2.79545 12.1134C2.26515 11.5831 2 10.9392 2 10.1816C2 9.40887 2.26515 8.76114 2.79545 8.23841C3.32576 7.71569 3.9697 7.45432 4.72727 7.45432C5.5 7.45432 6.14773 7.71569 6.67045 8.23841C7.19318 8.76114 7.45455 9.40887 7.45455 10.1816C7.45455 10.9392 7.19318 11.5831 6.67045 12.1134C6.14773 12.6437 5.5 12.9089 4.72727 12.9089ZM19.2727 12.9089C18.5152 12.9089 17.8712 12.6437 17.3409 12.1134C16.8106 11.5831 16.5455 10.9392 16.5455 10.1816C16.5455 9.40887 16.8106 8.76114 17.3409 8.23841C17.8712 7.71569 18.5152 7.45432 19.2727 7.45432C20.0455 7.45432 20.6932 7.71569 21.2159 8.23841C21.7386 8.76114 22 9.40887 22 10.1816C22 10.9392 21.7386 11.5831 21.2159 12.1134C20.6932 12.6437 20.0455 12.9089 19.2727 12.9089ZM12 10.1816C11.2424 10.1816 10.5985 9.91644 10.0682 9.38614C9.53788 8.85584 9.27273 8.2119 9.27273 7.45432C9.27273 6.6816 9.53788 6.03387 10.0682 5.51114C10.5985 4.98841 11.2424 4.72705 12 4.72705C12.7727 4.72705 13.4205 4.98841 13.9432 5.51114C14.4659 6.03387 14.7273 6.6816 14.7273 7.45432C14.7273 8.2119 14.4659 8.85584 13.9432 9.38614C13.4205 9.91644 12.7727 10.1816 12 10.1816Z" fill="#B3C943"/>
</svg>
