<svg width="24" height="24" viewBox="0 0 24 24" fill="none" xmlns="http://www.w3.org/2000/svg">
<path d="M6.54545 19.818C5.28788 19.818 4.21591 19.3748 3.32955 18.4885C2.44318 17.6021 2 16.5301 2 15.2725C2 14.015 2.44318 12.943 3.32955 12.0566C4.21591 11.1703 5.28788 10.7271 6.54545 10.7271C7.80303 10.7271 8.875 11.1703 9.76136 12.0566C10.6477 12.943 11.0909 14.015 11.0909 15.2725C11.0909 16.5301 10.6477 17.6021 9.76136 18.4885C8.875 19.3748 7.80303 19.818 6.54545 19.818ZM6.54545 16.6362C6.16667 16.6362 5.8447 16.5036 5.57955 16.2385C5.31439 15.9733 5.18182 15.6513 5.18182 15.2725C5.18182 14.8938 5.31439 14.5718 5.57955 14.3066C5.8447 14.0415 6.16667 13.9089 6.54545 13.9089C6.92424 13.9089 7.24621 14.0415 7.51136 14.3066C7.77652 14.5718 7.90909 14.8938 7.90909 15.2725C7.90909 15.6513 7.77652 15.9733 7.51136 16.2385C7.24621 16.5036 6.92424 16.6362 6.54545 16.6362ZM18.8182 19.818C17.9394 19.818 17.1894 19.5074 16.5682 18.8862C15.947 18.265 15.6364 17.515 15.6364 16.6362C15.6364 15.7574 15.947 15.0074 16.5682 14.3862C17.1894 13.765 17.9394 13.4544 18.8182 13.4544C19.697 13.4544 20.447 13.765 21.0682 14.3862C21.6894 15.0074 22 15.7574 22 16.6362C22 17.515 21.6894 18.265 21.0682 18.8862C20.447 19.5074 19.697 19.818 18.8182 19.818ZM4.72727 9.818C4.4697 9.818 4.25379 9.73088 4.07955 9.55664C3.9053 9.3824 3.81818 9.16649 3.81818 8.90891C3.81818 8.65134 3.9053 8.43543 4.07955 8.26119C4.25379 8.08694 4.4697 7.99982 4.72727 7.99982H7.45455C7.95455 7.99982 8.38258 8.17785 8.73864 8.53391C9.0947 8.88997 9.27273 9.318 9.27273 9.818H4.72727ZM8.47727 17.2044C9.00758 16.6741 9.27273 16.0301 9.27273 15.2725C9.27273 14.515 9.00758 13.871 8.47727 13.3407C7.94697 12.8104 7.30303 12.5453 6.54545 12.5453C5.78788 12.5453 5.14394 12.8104 4.61364 13.3407C4.08333 13.871 3.81818 14.515 3.81818 15.2725C3.81818 16.0301 4.08333 16.6741 4.61364 17.2044C5.14394 17.7347 5.78788 17.9998 6.54545 17.9998C7.30303 17.9998 7.94697 17.7347 8.47727 17.2044ZM19.7841 17.6021C20.0492 17.3369 20.1818 17.015 20.1818 16.6362C20.1818 16.2574 20.0492 15.9354 19.7841 15.6703C19.5189 15.4051 19.197 15.2725 18.8182 15.2725C18.4394 15.2725 18.1174 15.4051 17.8523 15.6703C17.5871 15.9354 17.4545 16.2574 17.4545 16.6362C17.4545 17.015 17.5871 17.3369 17.8523 17.6021C18.1174 17.8672 18.4394 17.9998 18.8182 17.9998C19.197 17.9998 19.5189 17.8672 19.7841 17.6021ZM11.9091 16.1816H14.7727C14.9242 15.0907 15.3977 14.2195 16.1932 13.568C16.9886 12.9165 17.8864 12.5907 18.8864 12.5907C19.2652 12.5907 19.6402 12.6438 20.0114 12.7498C20.3826 12.8559 20.7424 13.015 21.0909 13.2271V8.90891C21.0909 8.40891 20.9129 7.98088 20.5568 7.62482C20.2008 7.26876 19.7727 7.09073 19.2727 7.09073H13.5455L12.5909 6.09073L13.8636 4.818L13.2273 4.18164L10 7.40891L10.6818 8.04528L11.9545 6.77255L12.9091 7.7271V9.818C12.9091 10.318 12.7311 10.746 12.375 11.1021C12.0189 11.4582 11.5909 11.6362 11.0909 11.6362H10.5909C11.0455 12.1362 11.3902 12.6968 11.625 13.318C11.8598 13.9392 11.9773 14.5907 11.9773 15.2725C11.9773 15.4241 11.9735 15.5756 11.9659 15.7271C11.9583 15.8786 11.9394 16.0301 11.9091 16.1816Z" fill="#B3C943"/>
</svg>
