<svg width="60" height="60" viewBox="0 0 60 60" fill="none" xmlns="http://www.w3.org/2000/svg">
<circle cx="30" cy="30" r="30" fill="#1C1F24"/>
<path d="M39.2468 16C40.1023 16 40.8348 16.3048 41.444 16.9141C42.0533 17.5233 42.3581 18.2558 42.3581 19.1113V33.1914L44.9001 30.6611C45.1334 30.4278 45.3932 30.259 45.6784 30.1553C45.9635 30.0516 46.2488 30 46.5339 30C46.8449 30 47.1433 30.0582 47.4284 30.1748C47.7135 30.2915 47.9724 30.4669 48.2057 30.7002L49.6452 32.1387C49.8526 32.372 50.0139 32.6318 50.1306 32.917C50.2472 33.2021 50.3063 33.4873 50.3063 33.7725C50.3063 34.0576 50.2538 34.3494 50.1501 34.6475C50.0464 34.9454 49.8783 35.2111 49.6452 35.4443L41.0895 44H36.3063V39.2168L42.3571 33.1924V28.9688L32.4411 38.835V44H17.4694C16.6139 44 15.8814 43.6952 15.2722 43.0859C14.6629 42.4767 14.3581 41.7442 14.3581 40.8887V19.1113C14.3581 18.2558 14.6629 17.5233 15.2722 16.9141C15.8814 16.3048 16.6139 16 17.4694 16H39.2468ZM20.5807 37.7773H31.4694V34.667H20.5807V37.7773ZM45.0563 33.8115L46.5339 35.2891L47.9724 33.7725L46.5339 32.333L45.0563 33.8115ZM20.5807 31.5557H36.1354V28.4443H20.5807V31.5557ZM20.5807 25.333H36.1354V22.2227H20.5807V25.333Z" fill="#22C196"/>
</svg>
